<svg height="96" width="96" xmlns="http://www.w3.org/2000/svg" xmlns:xlink="http://www.w3.org/1999/xlink"><linearGradient id="a"><stop offset="0" stop-color="#fefefe"/><stop offset="1" stop-color="#fefefe" stop-opacity="0"/></linearGradient><linearGradient id="b" gradientUnits="userSpaceOnUse" x1="36.357143" x2="36.357143" xlink:href="#a" y1="6" y2="63.893143"/><filter id="c" color-interpolation-filters="sRGB" height="1.384" width="1.384" x="-.192" y="-.192"><feGaussianBlur stdDeviation="5.28"/></filter><linearGradient id="d" gradientUnits="userSpaceOnUse" x1="48" x2="48" xlink:href="#a" y1="20.220806" y2="138.66119"/><radialGradient id="e" cx="48" cy="90.171875" gradientTransform="matrix(1.1573129 0 0 .99590774 -7.551021 .197132)" gradientUnits="userSpaceOnUse" r="42" xlink:href="#a"/><clipPath id="f"><rect height="84" rx="6" width="84" x="6" y="6"/></clipPath><linearGradient id="g" gradientUnits="userSpaceOnUse" x1="48" x2="48" y1="90" y2="5.987717"><stop offset="0" stop-color="#6189bb"/><stop offset="1" stop-color="#b6cce9"/></linearGradient><linearGradient id="h" gradientTransform="matrix(1.0058652 0 0 .994169 100 0)" gradientUnits="userSpaceOnUse" x1="45.447727" x2="45.447727" y1="92.539597" y2="7.01654"><stop offset="0"/><stop offset="1" stop-opacity=".588235"/></linearGradient><linearGradient id="i" gradientTransform="matrix(1.0238095 0 0 1.0119048 -1.142857 -98.071429)" gradientUnits="userSpaceOnUse" x1="32.251034" x2="32.251034" xlink:href="#h" y1="6.131708" y2="90.238609"/><linearGradient id="j" gradientTransform="translate(0 -97)" gradientUnits="userSpaceOnUse" x1="32.251034" x2="32.251034" xlink:href="#h" y1="6.131708" y2="90.238609"/><clipPath id="k"><path d="m12 6c-3.324 0-6 2.676-6 6v72c0 3.324 2.676 6 6 6h64c3.324 0 6-2.676 6-6v-72c0-3.324-2.676-6-6-6zm41 26c4.743704 0 8.53125 3.572546 8.53125 8-.01825.53641-.02106 1.191497-.0625 1.8125.702765.441929.716648 1.927473.0625 3.46875-.232692.54826-.496623.961126-.8125 1.34375-.09925.462922-.122812.837373-.25 1.375-.353893 1.061686-1.7896 3.18573-2.84375 4.8125-.06772 1.079485-.03947 2.185261.09375 3.28125 3.292538 2.863076 11.89258 4.362091 11.90625 6.8125l.1875 1.09375h-33.625l.1875-1.09375c-.01278-2.863077 8.572836-4.04691 11.90625-6.8125.231115-1.347492.113438-2.534285 0-3.71875-1.15686-1.542305-2.432269-3.421804-2.75-4.375-.113856-.521158-.06413-.73154-.15625-1.1875-.37917-.408095-.726944-.887885-1-1.53125-.688569-1.622398-.65495-3.218212.15625-3.5625-.04499-.57433-.05178-1.247284-.0625-1.71875 0-4.427454 3.78755-8 8.53125-8z"/></clipPath><filter id="l" color-interpolation-filters="sRGB" height="1.492273" width="1.468324" x="-.234162" y="-.246136"><feGaussianBlur stdDeviation="3.2818182"/></filter><linearGradient id="m" gradientUnits="userSpaceOnUse" x1="47.99999725577" x2="47.99999725577" y1="31.99999881968" y2="63.9999992"><stop offset="0" stop-opacity=".80916"/><stop offset="1" stop-opacity=".435115"/></linearGradient><g fill="url(#i)"><path d="m12-95.03125c-5.5110903 0-10.03125 4.52016-10.03125 10.03125v71c0 5.5110902 4.5201598 10.03125 10.03125 10.03125h72c5.51109 0 10.03125-4.5201597 10.03125-10.03125v-71c0-5.51109-4.52016-10.03125-10.03125-10.03125z" opacity=".08" transform="scale(1 -1)"/><path d="m12-94.03125c-4.971633 0-9.03125 4.059617-9.03125 9.03125v71c0 4.9716329 4.0596171 9.03125 9.03125 9.03125h72c4.971633 0 9.03125-4.059617 9.03125-9.03125v-71c0-4.971633-4.059617-9.03125-9.03125-9.03125z" opacity=".1" transform="scale(1 -1)"/><path d="m12-93c-4.4091333 0-8 3.590867-8 8v71c0 4.4091333 3.5908667 8 8 8h72c4.409133 0 8-3.5908667 8-8v-71c0-4.409133-3.590867-8-8-8z" opacity=".2" transform="scale(1 -1)"/><rect height="85" opacity=".3" rx="7" transform="scale(1 -1)" width="86" x="5" y="-92"/></g><rect fill="url(#j)" height="84" opacity=".45" rx="6" transform="scale(1 -1)" width="84" x="6" y="-91"/><rect fill="url(#g)" height="84" rx="6" width="84" x="6" y="6"/><path d="m12 6c-3.324 0-6 2.676-6 6v2 68 2c0 .334721.04135.6507.09375.96875.0487.295596.09704.596915.1875.875.00988.03038.020892.0636.03125.09375.098865.287771.2348802.547452.375.8125.1445918.273507.3156161.535615.5.78125s.3737765.473472.59375.6875c.439947.428056.94291.814526 1.5 1.09375.278545.139612.5734731.246947.875.34375-.2562018-.100222-.4867109-.236272-.71875-.375-.00741-.0044-.023866.0045-.03125 0-.031933-.0193-.062293-.04251-.09375-.0625-.120395-.0767-.2310226-.163513-.34375-.25-.1061728-.0808-.2132809-.161112-.3125-.25-.1779299-.161433-.3474596-.345388-.5-.53125-.1075789-.130255-.2183939-.265285-.3125-.40625-.025089-.03838-.038446-.08587-.0625-.125-.064763-.103032-.1302275-.204517-.1875-.3125-.1010083-.194706-.2056748-.415701-.28125-.625-.00796-.02181-.023589-.04055-.03125-.0625-.0318251-.09195-.0358045-.186831-.0625-.28125-.0303323-.106618-.0703894-.203031-.09375-.3125-.0728786-.341512-.125-.698205-.125-1.0625v-2-68-2c0-2.781848 2.2181517-5 5-5h2 68 2c2.781848 0 5 2.218152 5 5v2 68 2c0 .364295-.05212.720988-.125 1.0625-.04415.206893-.08838.397658-.15625.59375-.0077.02195-.0233.04069-.03125.0625-.06274.173739-.138383.367449-.21875.53125-.04158.0828-.07904.169954-.125.25-.0546.09721-.126774.18835-.1875.28125-.09411.140965-.204921.275995-.3125.40625-.143174.17445-.303141.346998-.46875.5-.01117.0102-.01998.02115-.03125.03125-.138386.125556-.285091.234436-.4375.34375-.102571.07315-.204318.153364-.3125.21875-.0074.0045-.02384-.0044-.03125 0-.232039.138728-.462548.274778-.71875.375.301527-.0968.596455-.204138.875-.34375.55709-.279224 1.060053-.665694 1.5-1.09375.219973-.214028.409366-.441865.59375-.6875s.355408-.507743.5-.78125c.14012-.265048.276135-.524729.375-.8125.01041-.03078.02133-.06274.03125-.09375.09046-.278085.1388-.579404.1875-.875.0524-.31805.09375-.634029.09375-.96875v-2-68-2c0-3.324-2.676-6-6-6z" fill="url(#b)" opacity=".4"/><path d="m12 90c-3.324 0-6-2.676-6-6v-2-68-2c0-.334721.04135-.6507.09375-.96875.0487-.295596.09704-.596915.1875-.875.00988-.03038.020892-.0636.03125-.09375.098865-.287771.2348802-.547452.375-.8125.1445918-.273507.3156161-.535615.5-.78125s.3737765-.473472.59375-.6875c.439947-.428056.94291-.814526 1.5-1.09375.278545-.139612.5734731-.246947.875-.34375-.2562018.100222-.4867109.236272-.71875.375-.00741.0044-.023866-.0045-.03125 0-.031933.0193-.062293.04251-.09375.0625-.120395.0767-.2310226.163513-.34375.25-.1061728.0808-.2132809.161112-.3125.25-.1779299.161433-.3474596.345388-.5.53125-.1075789.130255-.2183939.265285-.3125.40625-.025089.03838-.038446.08587-.0625.125-.064763.103032-.1302275.204517-.1875.3125-.1010083.194706-.2056748.415701-.28125.625-.00796.02181-.023589.04055-.03125.0625-.0318251.09195-.0358045.186831-.0625.28125-.0303323.106618-.0703894.203031-.09375.3125-.0728786.341512-.125.698205-.125 1.0625v2 68 2c0 2.781848 2.2181517 5 5 5h2 68 2c2.781848 0 5-2.218152 5-5v-2-68-2c0-.364295-.05212-.720988-.125-1.0625-.04415-.206893-.08838-.397658-.15625-.59375-.0077-.02195-.0233-.04069-.03125-.0625-.06274-.173739-.138383-.367449-.21875-.53125-.04158-.0828-.07904-.169954-.125-.25-.0546-.09721-.126774-.18835-.1875-.28125-.09411-.140965-.204921-.275995-.3125-.40625-.143174-.17445-.303141-.346998-.46875-.5-.01117-.0102-.01998-.02115-.03125-.03125-.138386-.125556-.285091-.234436-.4375-.34375-.102571-.07315-.204318-.153364-.3125-.21875-.0074-.0045-.02384.0044-.03125 0-.232039-.138728-.462548-.274778-.71875-.375.301527.0968.596455.204138.875.34375.55709.279224 1.060053.665694 1.5 1.09375.219973.214028.409366.441865.59375.6875s.355408.507743.5.78125c.14012.265048.276135.524729.375.8125.01041.03078.02133.06274.03125.09375.09046.278085.1388.579404.1875.875.0524.31805.09375.634029.09375.96875v2 68 2c0 3.324-2.676 6-6 6z" fill="url(#e)" opacity=".2"/><rect height="66" rx="12" style="opacity:.1;stroke:#fefefe;stroke-width:.5;stroke-linecap:round;clip-path:url(#f);fill:url(#d);filter:url(#c)" width="66" x="15" y="15"/><g enable-background="new" transform="matrix(1.8197801 0 0 1.8197801 -48.533901 -38.999938)"><path d="m53 32c-4.7437 0-8.545454 3.572545-8.545454 7.999999.01072.471466.04591 1.152943.0909 1.727273-.8112.344288-.870395 1.923056-.181826 3.545454.273056.643365.620831 1.137361 1.000001 1.545456.09212.45596.06797.66066.181826 1.181818.317731.953196 1.570412 2.821332 2.727272 4.363637.113438 1.184465.231115 2.379781 0 3.727273-3.333414 2.76559-11.921867 3.955104-11.909091 6.818181l-.181809 1.090909h33.636364l-.181826-1.090909c-.01367-2.450409-8.616547-3.955105-11.909085-6.818181-.13322-1.095989-.158617-2.193243-.0909-3.272728 1.05415-1.62677 2.464287-3.756496 2.81818-4.818182.127188-.537627.17348-.900715.272727-1.363637.315877-.382624.585491-.815377.818183-1.363637.654148-1.541277.611865-3.012616-.0909-3.454545.04144-.621003.07265-1.281772.0909-1.818182 0-4.427454-3.80175-7.999999-8.545454-7.999999z" fill="url(#m)" opacity=".6"/><path d="m53 32c-4.7437 0-8.53125 3.572546-8.53125 8 .01072.471466.01751 1.14442.0625 1.71875-.8112.344288-.844819 1.940102-.15625 3.5625.273056.643365.62083 1.123155 1 1.53125.09212.45596.04239.666342.15625 1.1875.317731.953196 1.59314 2.832695 2.75 4.375.113438 1.184465.231115 2.371258 0 3.71875-3.333414 2.76559-11.919026 3.949423-11.90625 6.8125l-.1875 1.09375h33.625l-.1875-1.09375c-.01367-2.450409-8.613712-3.949424-11.90625-6.8125-.13322-1.095989-.161467-2.201765-.09375-3.28125 1.05415-1.62677 2.489857-3.750814 2.84375-4.8125.127188-.537627.150753-.912078.25-1.375.315877-.382624.579808-.79549.8125-1.34375.654148-1.541277.640265-3.026821-.0625-3.46875.04144-.621003.04425-1.27609.0625-1.8125 0-4.427454-3.787546-8-8.53125-8zm0 1.03125c4.220895 0 7.481987 3.105191 7.5 6.9375.00005.01059 0 .02065 0 .03125-.01822.553917-.0247 1.183509-.0625 1.75a1.0181664 1.0181664 0 0 0 .46875.9375c.0046.0236.08877.145393.09375.46875.0066.431143-.126145 1.058778-.40625 1.71875-.19634.462608-.392026.773693-.65625 1.09375a1.0181664 1.0181664 0 0 0 -.21875.4375c-.115912.540653-.140707.881767-.25 1.34375-.126229.349982-.525694 1.086798-1.03125 1.90625-.521847.845859-1.124435 1.773051-1.65625 2.59375a1.0181664 1.0181664 0 0 0 -.1875.5c-.07154 1.140497-.01604 2.308449.125 3.46875a1.0181664 1.0181664 0 0 0 .34375.65625c1.911078 1.661806 4.929604 2.689595 7.46875 3.71875 1.269573.514577 2.403906 1.005018 3.15625 1.46875.376172.231866.643163.465199.78125.625s.124951.209898.125.21875a1.0181664 1.0181664 0 0 0 .03125.0625h-31.25a1.0181664 1.0181664 0 0 0 .03125-.0625c-.000922-.206654.173898-.554413.90625-1.03125s1.863046-.97631 3.125-1.46875c2.523908-.984879 5.557672-1.919784 7.5-3.53125a1.0181664 1.0181664 0 0 0 .34375-.59375c.257685-1.502404.113221-2.817805 0-4a1.0181664 1.0181664 0 0 0 -.1875-.53125c-.567076-.756016-1.172175-1.591617-1.65625-2.34375-.460025-.714766-.791693-1.320131-.90625-1.625-.0047-.0215.0039-.04217 0-.0625-.07031-.362682-.04429-.539566-.15625-1.09375a1.0181664 1.0181664 0 0 0 -.25-.5c-.319624-.344007-.589784-.725245-.8125-1.25-.295057-.69521-.422507-1.370821-.40625-1.8125.01219-.331259.07306-.433354.0625-.4375a1.0181664 1.0181664 0 0 0 .5625-1c-.040008-.510735-.020562-1.144068-.03125-1.625 0-.0106-.00005-.02066 0-.03125.01801-3.832308 3.279109-6.9375 7.5-6.9375z" opacity=".1"/><path d="m53 32c-4.7437 0-8.53125 3.572546-8.53125 8 .0031.137284.02434.334933.03125.5.277369-4.189849 3.938918-7.5 8.5-7.5 4.572472 0 8.239037 3.326517 8.5 7.53125.0075-.174615.0259-.373895.03125-.53125 0-4.427454-3.787546-8-8.53125-8zm-8.5 9.75c-.504215.248696-.67779 1.002802-.5625 1.9375.08082-.470911.26263-.828217.59375-.96875-.025354-.323665-.014746-.633792-.03125-.96875zm17 .09375c-.01589.329553-.0091.63686-.03125.96875.282265.177501.433165.521284.5.96875.120663-.891577-.03133-1.629392-.46875-1.9375zm-3.90625 12.78125c-.01517.815286.0251 1.64686.125 2.46875 3.292538 2.863076 11.89258 4.362091 11.90625 6.8125l.03125.09375h.15625l-.1875-1.09375c-.01367-2.450409-8.613712-3.949424-11.90625-6.8125-.05911-.486309-.10706-.983606-.125-1.46875zm-9.21875.21875c-.01445.400585-.02058.823394-.09375 1.25-3.333414 2.76559-11.919026 3.949423-11.90625 6.8125l-.1875 1.09375h.15625l.03125-.09375c-.01278-2.863077 8.572836-4.04691 11.90625-6.8125.135873-.792193.127248-1.534283.09375-2.25z" opacity=".2"/><path d="m44.5 40.5c-.01111.167755-.03125.329556-.03125.5.0047.20577.01847.490589.03125.75.01373-.0068.01705-.02522.03125-.03125-.03189-.407094-.014432-.816938-.03125-1.21875zm17 .03125c-.0181.420632-.002.842418-.03125 1.28125.01255.0079.01912.02271.03125.03125.01384-.287077.02275-.59402.03125-.84375 0-.159817-.02148-.311289-.03125-.46875zm-17.5625 3.15625c-.117174.682757.02999 1.633592.4375 2.59375.273056.643365.62083 1.123155 1 1.53125.09212.45596.04239.666342.15625 1.1875.317731.953196 1.59314 2.832695 2.75 4.375.04675.488116.07027.967058.09375 1.46875.0312-.864716-.01623-1.659278-.09375-2.46875-1.15686-1.542305-2.432269-3.421804-2.75-4.375-.113856-.521158-.06413-.73154-.15625-1.1875-.37917-.408095-.726944-.887885-1-1.53125-.234175-.551761-.376466-1.098924-.4375-1.59375zm18.03125.09375c-.06334.46802-.216341.978914-.4375 1.5-.232692.54826-.496623.961126-.8125 1.34375-.09925.462922-.122812.837373-.25 1.375-.353893 1.061686-1.7896 3.18573-2.84375 4.8125-.03767.600499-.05374 1.20428-.03125 1.8125.0051-.271896.01431-.542529.03125-.8125 1.05415-1.62677 2.489857-3.750814 2.84375-4.8125.127188-.537627.150753-.912078.25-1.375.315877-.382624.579808-.79549.8125-1.34375.39141-.922223.537066-1.833396.4375-2.5zm-25.625 20.21875-.15625 1h33.625l-.15625-1z" fill="#fefefe" opacity=".15"/><path d="m53 32c-4.7437 0-8.545454 3.572545-8.545454 7.999999.01072.471466.04591 1.152943.0909 1.727273-.8112.344288-.870395 1.923056-.181826 3.545454.273056.643365.620831 1.137361 1.000001 1.545456.09212.45596.06797.66066.181826 1.181818.317731.953196 1.570412 2.821332 2.727272 4.363637.113438 1.184465.231115 2.379781 0 3.727273-3.333414 2.76559-11.921867 3.955104-11.909091 6.818181l-.181809 1.090909h33.636364l-.181826-1.090909c-.01367-2.450409-8.616547-3.955105-11.909085-6.818181-.13322-1.095989-.158617-2.193243-.0909-3.272728 1.05415-1.62677 2.464287-3.756496 2.81818-4.818182.127188-.537627.17348-.900715.272727-1.363637.315877-.382624.585491-.815377.818183-1.363637.654148-1.541277.611865-3.012616-.0909-3.454545.04144-.621003.07265-1.281772.0909-1.818182 0-4.427454-3.80175-7.999999-8.545454-7.999999z" style="opacity:.15;fill:none;stroke:#fefefe;stroke-width:3;clip-path:url(#k);filter:url(#l)"/></g></svg>