<svg height="96" width="96" xmlns="http://www.w3.org/2000/svg" xmlns:xlink="http://www.w3.org/1999/xlink"><linearGradient id="a"><stop offset="0" stop-color="#fff"/><stop offset="1" stop-color="#fff" stop-opacity="0"/></linearGradient><linearGradient id="b" gradientTransform="scale(1.0598527 .9435274)" gradientUnits="userSpaceOnUse" x1="48.035713" x2="48.035713" y1="25.910715" y2="85.821426"><stop offset="0" stop-color="#c6953a"/><stop offset="1" stop-color="#ab7a1f"/></linearGradient><linearGradient id="c" gradientTransform="matrix(1.0058652 0 0 .994169 0 12)" gradientUnits="userSpaceOnUse" x1="45.447727" x2="45.447727" y1="80.471962" y2="7.01654"><stop offset="0"/><stop offset="1" stop-opacity=".588235"/></linearGradient><linearGradient id="d" gradientUnits="userSpaceOnUse" x1="48" x2="48" y1="86" y2="13.987717"><stop offset="0" stop-color="#c29656"/><stop offset="1" stop-color="#ddc08b"/></linearGradient><clipPath id="e"><rect height="72" rx="6" width="84" x="6" y="18"/></clipPath><filter id="f" color-interpolation-filters="sRGB" height="1.39432" width="1.331176" x="-.165588" y="-.19716"><feGaussianBlur stdDeviation="5.1703125"/></filter><linearGradient id="g" gradientUnits="userSpaceOnUse" spreadMethod="reflect" x1="90" x2="48" y1="88" y2="88"><stop offset="0" stop-opacity=".588235"/><stop offset=".11780351" stop-opacity=".470588"/><stop offset=".23809524" stop-opacity=".392157"/><stop offset="1" stop-opacity=".313726"/></linearGradient><linearGradient id="h" gradientTransform="matrix(1 0 0 -1 0 92)" gradientUnits="userSpaceOnUse" x1="48" x2="48" xlink:href="#a" y1="75.08329" y2="-40"/><linearGradient id="i" gradientUnits="userSpaceOnUse" x1="48.021698" x2="48.021698" xlink:href="#a" y1="22.933374" y2="81.481377"/><linearGradient id="j" gradientUnits="userSpaceOnUse" x1="27.018948" x2="27.018948" y1="6.19809576" y2="13.91044992"><stop offset="0" stop-color="#dab980"/><stop offset=".71691591" stop-color="#c29856"/><stop offset="1" stop-color="#a2773a"/></linearGradient><linearGradient id="k" gradientUnits="userSpaceOnUse" x1="43" x2="43" xlink:href="#c" y1="91" y2="7"/><linearGradient id="l" gradientUnits="userSpaceOnUse" x1="45" x2="45" xlink:href="#c" y1="92" y2="7"/><linearGradient id="m" gradientUnits="userSpaceOnUse" x1="56" x2="56" y1="72" y2="28"><stop offset="0" stop-color="#aa7932" stop-opacity=".784314"/><stop offset="1" stop-color="#aa7932" stop-opacity=".392157"/></linearGradient><g><g fill="url(#l)"><path d="m14.125 4c-4.4339296 0-8.125 3.568413-8.125 8v2.15625c-2.3764039 1.802117-4 4.602795-4 7.84375v63c0 5.503629 4.496371 10 10 10h72c5.503629 0 10-4.496371 10-10v-63c0-3.483399-1.853393-6.453106-4.53125-8.21875-.987199-3.289512-3.942726-5.78125-7.59375-5.78125h-39.5c-1.402648-1.354823-2.539671-2.5096216-3.6875-3.15625-1.495213-.8423269-2.930851-.8142088-3.8125-.84375a.92780092.92780092 0 0 0 -.03125 0c-.0012-.0000173-.03009-.0000173-.03125 0h-.03125z" opacity=".08"/><path d="m14.125 4.9375c-3.940593 0-7.1875 3.1432925-7.1875 7.0625v2.59375c-2.3826099 1.622076-4 4.293928-4 7.40625v63c0 5.001444 4.0610559 9.0625 9.0625 9.0625h72c5.001444 0 9.0625-4.061056 9.0625-9.0625v-63c0-3.260846-1.77319-6.039741-4.34375-7.625-.761191-3.095675-3.477261-5.4375-6.84375-5.4375h-39.8125c-1.597479-1.5411943-2.772062-2.6775158-3.84375-3.28125-1.273179-.7172441-2.447473-.6876716-3.375-.71875a1.043776 1.043776 0 0 0 -.03125 0c-.000001 0-.03125 0-.03125 0z" opacity=".1"/><path d="m14.125 5.96875c-3.388674 0-6.15625 2.6880206-6.15625 6.03125v3.125c-2.3751432 1.394016-4 3.920462-4 6.875v63c0 4.438141 3.5931086 8.03125 8.03125 8.03125h72c4.438141 0 8.03125-3.593109 8.03125-8.03125v-63c0-3.031992-1.712245-5.604362-4.1875-6.96875-.491893-2.85962-2.928643-5.0625-5.96875-5.0625h-40.1875c-1.834833-1.7748421-3.008637-2.8653713-3.96875-3.40625-1.037275-.5843477-1.940446-.5613891-2.90625-.59375a1.043776 1.043776 0 0 0 -.03125 0z" opacity=".2"/><path d="m14.125 7c-2.842895 0-5.125 2.23-5.125 5v3.6875c-2.3640592 1.121384-4 3.512842-4 6.3125v63c0 3.878 3.122 7 7 7h72c3.878 0 7-3.122 7-7v-63c0-2.809736-1.653368-5.196371-4.03125-6.3125-.169649-2.618425-2.362165-4.6875-5.09375-4.6875h-40.59375c-4.220528-4.1123102-4.502768-3.9330794-6.5-4z" opacity=".3"/></g><path d="m15 7c-2.77 0-5 2.23-5 5v3.34375c-2.3335067.820906-4 3.035137-4 5.65625v64c0 3.324 2.676 6 6 6h72c3.324 0 6-2.676 6-6v-64c0-2.641888-1.699863-4.851225-4.0625-5.65625-.326036-2.450302-2.395226-4.34375-4.9375-4.34375h-40.53125c-4.11231-4.1123102-4.366479-3.9330794-6.3125-4z" fill="url(#k)" opacity=".45"/></g><g><rect fill="url(#b)" height="62.678574" rx="6" width="75" x="10.535714" y="23.142857"/><path d="m15 6c-2.77 0-5 2.23-5 5v59.8125c0 2.39328 1.91922 4.3125 4.3125 4.3125h67.375c2.39328 0 4.3125-1.91922 4.3125-4.3125v-55.8125c0-2.77-2.23-5-5-5h-40.53125c-4.11231-4.1123102-4.366479-3.9330794-6.3125-4z" fill="url(#j)"/><path d="m15 6c-2.77 0-5 2.23-5 5v59.8125c0 2.39328 1.91922 4.3125 4.3125 4.3125h67.375c2.39328 0 4.3125-1.91922 4.3125-4.3125v-55.8125c0-2.77-2.23-5-5-5h-40.53125c-4.11231-4.1123102-4.366479-3.9330794-6.3125-4zm0 1.03125h19.125.03125c.964976.031157 1.192535-.016972 1.8125.34375.630289.366729 1.706808 1.3318077 3.75 3.375a1.043776 1.043776 0 0 0 .75.28125h40.53125c2.209859 0 3.96875 1.758891 3.96875 3.96875v55.8125c0 1.835319-1.445931 3.28125-3.28125 3.28125h-67.375c-1.835319 0-3.28125-1.445931-3.28125-3.28125v-59.8125c0-2.2098586 1.758891-3.96875 3.96875-3.96875z" fill="#fff" opacity=".2"/></g><g><rect fill="url(#d)" height="76" rx="6" width="84" x="6" y="14"/><path d="m12 86c-3.324 0-6-2.676-6-6v-60c0-3.324 2.676-6 6-6h72c3.324 0 6 2.676 6 6v60c0 3.324-2.676 6-6 6zm0-.96875h72c2.80489 0 5.03125-2.22636 5.03125-5.03125v-60c0-2.80489-2.22636-5.03125-5.03125-5.03125h-72c-2.8048898 0-5.03125 2.22636-5.03125 5.03125v60c0 2.80489 2.2263602 5.03125 5.03125 5.03125z" fill="url(#h)" opacity=".35"/><path d="m6 78v2c0 3.324 2.676 6 6 6h72c3.324 0 6-2.676 6-6v-2c0 3.324-2.676 6-6 6h-72c-3.324 0-6-2.676-6-6z" fill="#fff" opacity=".1"/></g><path d="m6 80v4c0 3.324 2.676 6 6 6h72c3.324 0 6-2.676 6-6v-4c0 3.324-2.676 6-6 6h-72c-3.324 0-6-2.676-6-6z" fill="#a17431" opacity=".8"/><path d="m6 80v4c0 3.324 2.676 6 6 6h72c3.324 0 6-2.676 6-6v-4c0 3.324-2.676 6-6 6h-72c-3.324 0-6-2.676-6-6z" fill="url(#g)" opacity=".5"/><path d="m6 82v2c0 3.324 2.676 6 6 6h72c3.324 0 6-2.676 6-6v-2c0 3.324-2.676 6-6 6h-72c-3.324 0-6-2.676-6-6z" opacity=".1"/><path d="m6 83v1c0 3.324 2.676 6 6 6h72c3.324 0 6-2.676 6-6v-1c0 3.324-2.676 6-6 6h-72c-3.324 0-6-2.676-6-6z" opacity=".15"/><path clip-path="url(#e)" d="m15.96875 22.53125c-2.845903.0043-5.433244 2.591597-5.4375 5.4375v48.0625c.0043 2.845903 2.591597 5.433244 5.4375 5.4375h64.0625c2.845903-.0043 5.433244-2.591597 5.4375-5.4375v-48.0625c-.0043-2.845903-2.591597-5.433244-5.4375-5.4375z" fill="url(#i)" filter="url(#f)" opacity=".15"/><path d="m32 25.96875c-2.191837 0-4.03125 1.839413-4.03125 4.03125v40c0 2.191837 1.839413 4.03125 4.03125 4.03125h32c2.191837 0 4.03125-1.839413 4.03125-4.03125v-28c0-1.694006-.35014-3.329168-1.3125-4.84375s-2.370494-2.964244-4.625-5.21875c-2.47745-2.47745-3.935925-3.88093-5.4375-4.8125s-3.055891-1.15625-4.65625-1.15625zm0 2.03125h20c3 0 3.728517.447267 8.65625 5.375 4.479125 4.479124 5.34375 5.625 5.34375 8.625v28c0 1.108-.892 2-2 2h-32c-1.108 0-2-.892-2-2v-40c0-1.108.892-2 2-2zm2 4v36h28v-26h-10v-10zm2.03125 2.03125h13.9375v3.5625a2.0196388 2.0196388 0 0 0 -1.96875-1.625h-10a2.0196388 2.0196388 0 0 0 -1.96875 1.59375zm1.96875 3.96875h10v2h-10zm-1.96875 2.40625a2.0196388 2.0196388 0 0 0 1.78125 1.59375 2.0196388 2.0196388 0 0 0 -1.78125 1.5625zm13.9375.03125v1.5625a2.0196388 2.0196388 0 0 0 2.03125 2.03125h7.96875v21.9375h-2.5625a2.0196388 2.0196388 0 0 0 1.625-1.96875v-2a2.0196388 2.0196388 0 0 0 -1.84375-2 2.0196388 2.0196388 0 0 0 1.84375-2v-2a2.0196388 2.0196388 0 0 0 -1.84375-2 2.0196388 2.0196388 0 0 0 1.84375-2v-2a2.0196388 2.0196388 0 0 0 -2.03125-2.03125h-8.59375a2.0196388 2.0196388 0 0 0 1.625-1.96875v-2a2.0196388 2.0196388 0 0 0 -1.84375-2 2.0196388 2.0196388 0 0 0 1.78125-1.5625zm-11.96875 3.5625h10v2h-10zm-1.96875 2.40625a2.0196388 2.0196388 0 0 0 1.78125 1.59375 2.0196388 2.0196388 0 0 0 -1.78125 1.5625zm1.96875 3.59375h19v2h-19zm-1.96875 2.40625a2.0196388 2.0196388 0 0 0 1.78125 1.59375 2.0196388 2.0196388 0 0 0 -1.78125 1.5625zm1.96875 3.59375h19v2h-19zm-1.96875 2.40625a2.0196388 2.0196388 0 0 0 1.78125 1.59375 2.0196388 2.0196388 0 0 0 -1.78125 1.5625zm1.96875 3.59375h19v2h-19zm-1.96875 2.40625a2.0196388 2.0196388 0 0 0 1.53125 1.5625h-1.53125z" fill="#fff" opacity=".05"/><path d="m32 27c-1.645014 0-3 1.354986-3 3v40c0 1.645014 1.354986 3 3 3h32c1.645014 0 3-1.354986 3-3v-28c0-1.596125-.28789-2.914606-1.15625-4.28125s-2.221783-2.815534-4.46875-5.0625c-2.470597-2.470597-3.914151-3.827495-5.25-4.65625s-2.575275-1-4.125-1zm0 1h20c3 0 3.728517.447267 8.65625 5.375 4.479125 4.479124 5.34375 5.625 5.34375 8.625v28c0 1.108-.892 2-2 2h-32c-1.108 0-2-.892-2-2v-40c0-1.108.892-2 2-2zm2 4v36h28v-26h-10v-10zm1 1h16v9a1.0006794 1.0006794 0 0 0 1 1h9v24h-26zm2.8125 4a1.0006794 1.0006794 0 0 0 -.8125 1v2a1.0006794 1.0006794 0 0 0 1 1h10a1.0006794 1.0006794 0 0 0 1-1v-2a1.0006794 1.0006794 0 0 0 -1-1h-10a1.0006794 1.0006794 0 0 0 -.09375 0 1.0006794 1.0006794 0 0 0 -.09375 0zm.1875 1h10v2h-10zm-.1875 5a1.0006794 1.0006794 0 0 0 -.8125 1v2a1.0006794 1.0006794 0 0 0 1 1h10a1.0006794 1.0006794 0 0 0 1-1v-2a1.0006794 1.0006794 0 0 0 -1-1h-10a1.0006794 1.0006794 0 0 0 -.09375 0 1.0006794 1.0006794 0 0 0 -.09375 0zm.1875 1h10v2h-10zm-.1875 5a1.0006794 1.0006794 0 0 0 -.8125 1v2a1.0006794 1.0006794 0 0 0 1 1h19a1.0006794 1.0006794 0 0 0 1-1v-2a1.0006794 1.0006794 0 0 0 -1-1h-19a1.0006794 1.0006794 0 0 0 -.09375 0 1.0006794 1.0006794 0 0 0 -.09375 0zm.1875 1h19v2h-19zm-.1875 5a1.0006794 1.0006794 0 0 0 -.8125 1v2a1.0006794 1.0006794 0 0 0 1 1h19a1.0006794 1.0006794 0 0 0 1-1v-2a1.0006794 1.0006794 0 0 0 -1-1h-19a1.0006794 1.0006794 0 0 0 -.09375 0 1.0006794 1.0006794 0 0 0 -.09375 0zm.1875 1h19v2h-19zm-.1875 5a1.0006794 1.0006794 0 0 0 -.8125 1v2a1.0006794 1.0006794 0 0 0 1 1h19a1.0006794 1.0006794 0 0 0 1-1v-2a1.0006794 1.0006794 0 0 0 -1-1h-19a1.0006794 1.0006794 0 0 0 -.09375 0 1.0006794 1.0006794 0 0 0 -.09375 0zm.1875 1h19v2h-19z" fill="#fff" opacity=".1"/><g fill="url(#m)"><path d="m32 28c-1.108 0-2 .892-2 2v40c0 1.108.892 2 2 2h32c1.108 0 2-.892 2-2v-28c0-3-.864625-4.145876-5.34375-8.625-4.927733-4.927733-5.65625-5.375-8.65625-5.375zm2 4h18v10h10v26h-28zm4 6v2h10v-2zm0 6v2h10v-2zm0 6v2h19v-2zm0 6v2h19v-2zm0 6v2h19v-2z" opacity=".9"/><path d="m32 28c-1.108 0-2 .892-2 2v40c0 1.108.892 2 2 2h32c1.108 0 2-.892 2-2v-28c0-3-.864625-4.145876-5.34375-8.625-4.927733-4.927733-5.65625-5.375-8.65625-5.375zm0 2h1.84375a2.0002 2.0002 0 0 0 -1.84375 1.8125zm20.40625.03125c.971729.01139 1.425889.04689 2.15625.5.847778.525958 2.237086 1.799586 4.6875 4.25 2.224762 2.224762 3.470973 3.600291 4.0625 4.53125.522272.821963.632893 1.350818.65625 2.34375a2.0002 2.0002 0 0 0 -1.96875-1.65625h-8v-8a2.0002 2.0002 0 0 0 -1.59375-1.96875zm-18.40625 1.96875h18v10h10v26h-28zm4 6v2h10v-2zm0 6v2h10v-2zm0 6v2h19v-2zm0 6v2h19v-2zm0 6v2h19v-2zm-6 6.15625a2.0002 2.0002 0 0 0 1.8125 1.84375h-1.8125zm32 .03125v1.8125h-1.84375a2.0002 2.0002 0 0 0 1.84375-1.8125z" opacity=".25"/><path d="m32 28c-1.108 0-2 .892-2 2v1c0-1.108.892-2 2-2h20c3 0 3.728517.447267 8.65625 5.375 4.479125 4.479124 5.34375 5.625 5.34375 8.625v-1c0-3-.864625-4.145876-5.34375-8.625-4.927733-4.927733-5.65625-5.375-8.65625-5.375zm6 10v1h10v-1zm0 6v1h10v-1zm0 6v1h19v-1zm0 6v1h19v-1zm0 6v1h19v-1zm-4 6v1h28v-1z"/><path d="m32 28c-1.108 0-2 .892-2 2v40c0 1.108.892 2 2 2h32c1.108 0 2-.892 2-2v-28c0-3-.864625-4.145876-5.34375-8.625-4.927733-4.927733-5.65625-5.375-8.65625-5.375zm0 1h20c1.450304 0 2.052063.06063 3.0625.6875 1.010437.626871 2.41786 1.94911 4.875 4.40625 2.232162 2.232162 3.534963 3.611341 4.21875 4.6875s.84375 1.814819.84375 3.21875v28c0 .571297-.428703 1-1 1h-32c-.571297 0-1-.428703-1-1v-40c0-.571297.428703-1 1-1zm1.8125 2a1.0001 1.0001 0 0 0 -.8125 1v36a1.0001 1.0001 0 0 0 1 1h28a1.0001 1.0001 0 0 0 1-1v-26a1.0001 1.0001 0 0 0 -1-1h-9v-9a1.0001 1.0001 0 0 0 -1-1h-18a1.0001 1.0001 0 0 0 -.15625 0 1.0001 1.0001 0 0 0 -.03125 0zm.1875 1h18v10h10v26h-28zm4 6v2h10v-2zm0 6v2h10v-2zm0 6v2h19v-2zm0 6v2h19v-2zm0 6v2h19v-2z" opacity=".5"/></g><path d="m34 32v1h18v-1zm4 8v1h10v-1zm14 2v1h10v-1zm-14 4v1h10v-1zm0 6v1h19v-1zm0 6v1h19v-1zm0 6v1h19v-1zm-8 6v1c0 1.108.892 2 2 2h32c1.108 0 2-.892 2-2v-1c0 1.108-.892 2-2 2h-32c-1.108 0-2-.892-2-2z" fill="#fff" opacity=".2"/></svg>