<svg xmlns="http://www.w3.org/2000/svg" xmlnsXlink="http://www.w3.org/1999/xlink" width="100%" height="100%" viewBox="0 0 96 96">
  <rect width="84" height="84" x="-90" y="6" rx="6" transform="rotate(-90)" />
  <g fill="#fefefe">
    <path d="M15.844 15c-.366.077-.728.34-.781.719-.137.51-.028 1.12-.063 1.672 0 .478-.065 1.07.375 1.359.75.553 1.604 1.024 2.394 1.546L20.47 22c-1.689 1.06-3.368 2.137-5.063 3.188-.411.31-.433.862-.406 1.356.056.698-.158 1.46.219 2.081a1.065 1.065 0 0 0 1.45.132c2.643-1.646 5.277-3.308 7.925-4.945.411-.31.433-.862.406-1.356-.056-.685.147-1.43-.188-2.05-.571-.511-1.333-.871-1.988-1.317-2.14-1.327-4.275-2.692-6.418-3.995-.185-.06-.355-.122-.562-.094zm10 12c-.433.082-.805.432-.813.875-.074.66-.01 1.378-.031 2.06-.019.402.223.737.563.971.68.184 1.49.056 2.232.094h8.267c.342-.026.635-.265.844-.563.184-.68.056-1.49.094-2.232.04-.44-.145-.834-.531-1.08-.55-.232-1.256-.082-1.884-.125h-8.741z" />
  </g>
</svg>
